TITLE ""
FILE "LR_black_phrase_S08.mp3" MP3
  TRACK 01 AUDIO
    TITLE "LR_black_phrase_S08_001"
    INDEX 01 00:00:00
  TRACK 02 AUDIO
    TITLE "LR_black_phrase_S08_002"
    INDEX 01 00:00:14
  TRACK 03 AUDIO
    TITLE "LR_black_phrase_S08_003"
    INDEX 01 00:01:14
  TRACK 04 AUDIO
    TITLE "LR_black_phrase_S08_004"
    INDEX 01 00:01:55
  TRACK 05 AUDIO
    TITLE "LR_black_phrase_S08_005"
    INDEX 01 00:04:10
  TRACK 06 AUDIO
    TITLE "LR_black_phrase_S08_006"
    INDEX 01 00:05:10
  TRACK 07 AUDIO
    TITLE "LR_black_phrase_S08_007"
    INDEX 01 00:06:66
  TRACK 08 AUDIO
    TITLE "LR_black_phrase_S08_008"
    INDEX 01 00:07:30
  TRACK 09 AUDIO
    TITLE "LR_black_phrase_S08_009"
    INDEX 01 00:09:21
  TRACK 10 AUDIO
    TITLE "LR_black_phrase_S08_010"
    INDEX 01 00:09:50
  TRACK 11 AUDIO
    TITLE "LR_black_phrase_S08_011"
    INDEX 01 00:11:41
  TRACK 12 AUDIO
    TITLE "LR_black_phrase_S08_012"
    INDEX 01 00:12:47
  TRACK 13 AUDIO
    TITLE "LR_black_phrase_S08_013"
    INDEX 01 00:13:62
  TRACK 14 AUDIO
    TITLE "LR_black_phrase_S08_014"
    INDEX 01 00:14:28
  TRACK 15 AUDIO
    TITLE "LR_black_phrase_S08_015"
    INDEX 01 00:16:41
  TRACK 16 AUDIO
    TITLE "LR_black_phrase_S08_016"
    INDEX 01 00:17:44
  TRACK 17 AUDIO
    TITLE "LR_black_phrase_S08_017"
    INDEX 01 00:19:27
  TRACK 18 AUDIO
    TITLE "LR_black_phrase_S08_018"
    INDEX 01 00:19:66
  TRACK 19 AUDIO
    TITLE "LR_black_phrase_S08_019"
    INDEX 01 00:22:16
  TRACK 20 AUDIO
    TITLE "LR_black_phrase_S08_020"
    INDEX 01 00:22:47
  TRACK 21 AUDIO
    TITLE "LR_black_phrase_S08_021"
    INDEX 01 00:24:68
  TRACK 22 AUDIO
    TITLE "LR_black_phrase_S08_022"
    INDEX 01 00:25:67
  TRACK 23 AUDIO
    TITLE "LR_black_phrase_S08_023"
    INDEX 01 00:27:03
  TRACK 24 AUDIO
    TITLE "LR_black_phrase_S08_024"
    INDEX 01 00:27:40
  TRACK 25 AUDIO
    TITLE "LR_black_phrase_S08_025"
    INDEX 01 00:28:71
  TRACK 26 AUDIO
    TITLE "LR_black_phrase_S08_026"
    INDEX 01 00:29:69
  TRACK 27 AUDIO
    TITLE "LR_black_phrase_S08_027"
    INDEX 01 00:32:20
  TRACK 28 AUDIO
    TITLE "LR_black_phrase_S08_028"
    INDEX 01 00:32:55
  TRACK 29 AUDIO
    TITLE "LR_black_phrase_S08_029"
    INDEX 01 00:35:16
  TRACK 30 AUDIO
    TITLE "LR_black_phrase_S08_030"
    INDEX 01 00:35:38
  TRACK 31 AUDIO
    TITLE "LR_black_phrase_S08_031"
    INDEX 01 00:37:72
  TRACK 32 AUDIO
    TITLE "LR_black_phrase_S08_032"
    INDEX 01 00:38:70
  TRACK 33 AUDIO
    TITLE "LR_black_phrase_S08_033"
    INDEX 01 00:40:24
  TRACK 34 AUDIO
    TITLE "LR_black_phrase_S08_034"
    INDEX 01 00:40:61
  TRACK 35 AUDIO
    TITLE "LR_black_phrase_S08_035"
    INDEX 01 00:42:42
  TRACK 36 AUDIO
    TITLE "LR_black_phrase_S08_036"
    INDEX 01 00:43:43
  TRACK 37 AUDIO
    TITLE "LR_black_phrase_S08_037"
    INDEX 01 00:46:03
  TRACK 38 AUDIO
    TITLE "LR_black_phrase_S08_038"
    INDEX 01 00:46:38
  TRACK 39 AUDIO
    TITLE "LR_black_phrase_S08_039"
    INDEX 01 00:48:72
  TRACK 40 AUDIO
    TITLE "LR_black_phrase_S08_040"
    INDEX 01 00:49:17
  TRACK 41 AUDIO
    TITLE "LR_black_phrase_S08_041"
    INDEX 01 00:51:53
  TRACK 42 AUDIO
    TITLE "LR_black_phrase_S08_042"
    INDEX 01 00:52:52
  TRACK 43 AUDIO
    TITLE "LR_black_phrase_S08_043"
    INDEX 01 00:53:63
  TRACK 44 AUDIO
    TITLE "LR_black_phrase_S08_044"
    INDEX 01 00:54:30
  TRACK 45 AUDIO
    TITLE "LR_black_phrase_S08_045"
    INDEX 01 00:55:49
  TRACK 46 AUDIO
    TITLE "LR_black_phrase_S08_046"
    INDEX 01 00:56:50
  TRACK 47 AUDIO
    TITLE "LR_black_phrase_S08_047"
    INDEX 01 00:58:23
  TRACK 48 AUDIO
    TITLE "LR_black_phrase_S08_048"
    INDEX 01 00:58:63
  TRACK 49 AUDIO
    TITLE "LR_black_phrase_S08_049"
    INDEX 01 01:00:36
  TRACK 50 AUDIO
    TITLE "LR_black_phrase_S08_050"
    INDEX 01 01:00:67
  TRACK 51 AUDIO
    TITLE "LR_black_phrase_S08_051"
    INDEX 01 01:02:41
  TRACK 52 AUDIO
    TITLE "LR_black_phrase_S08_052"
    INDEX 01 01:03:48
  TRACK 53 AUDIO
    TITLE "LR_black_phrase_S08_053"
    INDEX 01 01:04:69
  TRACK 54 AUDIO
    TITLE "LR_black_phrase_S08_054"
    INDEX 01 01:05:33
  TRACK 55 AUDIO
    TITLE "LR_black_phrase_S08_055"
    INDEX 01 01:07:50
  TRACK 56 AUDIO
    TITLE "LR_black_phrase_S08_056"
    INDEX 01 01:08:47
  TRACK 57 AUDIO
    TITLE "LR_black_phrase_S08_057"
    INDEX 01 01:10:72
  TRACK 58 AUDIO
    TITLE "LR_black_phrase_S08_058"
    INDEX 01 01:11:38
  TRACK 59 AUDIO
    TITLE "LR_black_phrase_S08_059"
    INDEX 01 01:14:20
  TRACK 60 AUDIO
    TITLE "LR_black_phrase_S08_060"
    INDEX 01 01:14:50
  TRACK 61 AUDIO
    TITLE "LR_black_phrase_S08_061"
    INDEX 01 01:17:33
  TRACK 62 AUDIO
    TITLE "LR_black_phrase_S08_062"
    INDEX 01 01:18:32
  TRACK 63 AUDIO
    TITLE "LR_black_phrase_S08_063"
    INDEX 01 01:19:69
  TRACK 64 AUDIO
    TITLE "LR_black_phrase_S08_064"
    INDEX 01 01:20:33
  TRACK 65 AUDIO
    TITLE "LR_black_phrase_S08_065"
    INDEX 01 01:22:30
  TRACK 66 AUDIO
    TITLE "LR_black_phrase_S08_066"
    INDEX 01 01:23:29
  TRACK 67 AUDIO
    TITLE "LR_black_phrase_S08_067"
    INDEX 01 01:25:22
  TRACK 68 AUDIO
    TITLE "LR_black_phrase_S08_068"
    INDEX 01 01:25:58
  TRACK 69 AUDIO
    TITLE "LR_black_phrase_S08_069"
    INDEX 01 01:28:21
  TRACK 70 AUDIO
    TITLE "LR_black_phrase_S08_070"
    INDEX 01 01:28:42
  TRACK 71 AUDIO
    TITLE "LR_black_phrase_S08_071"
    INDEX 01 01:31:03
  TRACK 72 AUDIO
    TITLE "LR_black_phrase_S08_072"
    INDEX 01 01:32:01
  TRACK 73 AUDIO
    TITLE "LR_black_phrase_S08_073"
    INDEX 01 01:33:16
  TRACK 74 AUDIO
    TITLE "LR_black_phrase_S08_074"
    INDEX 01 01:33:55
  TRACK 75 AUDIO
    TITLE "LR_black_phrase_S08_075"
    INDEX 01 01:36:18
  TRACK 76 AUDIO
    TITLE "LR_black_phrase_S08_076"
    INDEX 01 01:37:20
  TRACK 77 AUDIO
    TITLE "LR_black_phrase_S08_077"
    INDEX 01 01:39:16
  TRACK 78 AUDIO
    TITLE "LR_black_phrase_S08_078"
    INDEX 01 01:39:54
  TRACK 79 AUDIO
    TITLE "LR_black_phrase_S08_079"
    INDEX 01 01:41:47
  TRACK 80 AUDIO
    TITLE "LR_black_phrase_S08_080"
    INDEX 01 01:41:68
  TRACK 81 AUDIO
    TITLE "LR_black_phrase_S08_081"
    INDEX 01 01:43:61
  TRACK 82 AUDIO
    TITLE "LR_black_phrase_S08_082"
    INDEX 01 01:44:63
  TRACK 83 AUDIO
    TITLE "LR_black_phrase_S08_083"
    INDEX 01 01:46:03
  TRACK 84 AUDIO
    TITLE "LR_black_phrase_S08_084"
    INDEX 01 01:46:42
  TRACK 85 AUDIO
    TITLE "LR_black_phrase_S08_085"
    INDEX 01 01:48:70
  TRACK 86 AUDIO
    TITLE "LR_black_phrase_S08_086"
    INDEX 01 01:49:60
  TRACK 87 AUDIO
    TITLE "LR_black_phrase_S08_087"
    INDEX 01 01:51:39
  TRACK 88 AUDIO
    TITLE "LR_black_phrase_S08_088"
    INDEX 01 01:52:01
  TRACK 89 AUDIO
    TITLE "LR_black_phrase_S08_089"
    INDEX 01 01:53:70
  TRACK 90 AUDIO
    TITLE "LR_black_phrase_S08_090"
    INDEX 01 01:54:24
  TRACK 91 AUDIO
    TITLE "LR_black_phrase_S08_091"
    INDEX 01 01:56:17
  TRACK 92 AUDIO
    TITLE "LR_black_phrase_S08_092"
    INDEX 01 01:57:22
  TRACK 93 AUDIO
    TITLE "LR_black_phrase_S08_093"
    INDEX 01 01:58:31
  TRACK 94 AUDIO
    TITLE "LR_black_phrase_S08_094"
    INDEX 01 01:58:69
  TRACK 95 AUDIO
    TITLE "LR_black_phrase_S08_095"
    INDEX 01 02:01:04
  TRACK 96 AUDIO
    TITLE "LR_black_phrase_S08_096"
    INDEX 01 02:02:04
  TRACK 97 AUDIO
    TITLE "LR_black_phrase_S08_097"
    INDEX 01 02:04:50
  TRACK 98 AUDIO
    TITLE "LR_black_phrase_S08_098"
    INDEX 01 02:05:14
  TRACK 99 AUDIO
    TITLE "LR_black_phrase_S08_099"
    INDEX 01 02:07:03
  TRACK 100 AUDIO
    TITLE "LR_black_phrase_S08_100"
    INDEX 01 02:07:32
  TRACK 101 AUDIO
    TITLE "LR_black_phrase_S08_101"
    INDEX 01 02:09:22
  TRACK 102 AUDIO
    TITLE "LR_black_phrase_S08_102"
    INDEX 01 02:10:19
  TRACK 103 AUDIO
    TITLE "LR_black_phrase_S08_103"
    INDEX 01 02:11:46
  TRACK 104 AUDIO
    TITLE "LR_black_phrase_S08_104"
    INDEX 01 02:12:04
  TRACK 105 AUDIO
    TITLE "LR_black_phrase_S08_105"
    INDEX 01 02:14:31
  TRACK 106 AUDIO
    TITLE "LR_black_phrase_S08_106"
    INDEX 01 02:15:30
  TRACK 107 AUDIO
    TITLE "LR_black_phrase_S08_107"
    INDEX 01 02:17:39
  TRACK 108 AUDIO
    TITLE "LR_black_phrase_S08_108"
    INDEX 01 02:17:72
  TRACK 109 AUDIO
    TITLE "LR_black_phrase_S08_109"
    INDEX 01 02:20:61
  TRACK 110 AUDIO
    TITLE "LR_black_phrase_S08_110"
    INDEX 01 02:21:05
  TRACK 111 AUDIO
    TITLE "LR_black_phrase_S08_111"
    INDEX 01 02:23:67
  TRACK 112 AUDIO
    TITLE "LR_black_phrase_S08_112"
    INDEX 01 02:24:62
  TRACK 113 AUDIO
    TITLE "LR_black_phrase_S08_113"
    INDEX 01 02:26:04
  TRACK 114 AUDIO
    TITLE "LR_black_phrase_S08_114"
    INDEX 01 02:26:40
  TRACK 115 AUDIO
    TITLE "LR_black_phrase_S08_115"
    INDEX 01 02:29:20
  TRACK 116 AUDIO
    TITLE "LR_black_phrase_S08_116"
    INDEX 01 02:30:20
  TRACK 117 AUDIO
    TITLE "LR_black_phrase_S08_117"
    INDEX 01 02:33:40
  TRACK 118 AUDIO
    TITLE "LR_black_phrase_S08_118"
    INDEX 01 02:33:75
  TRACK 119 AUDIO
    TITLE "LR_black_phrase_S08_119"
    INDEX 01 02:36:56
  TRACK 120 AUDIO
    TITLE "LR_black_phrase_S08_120"
    INDEX 01 02:36:75
  TRACK 121 AUDIO
    TITLE "LR_black_phrase_S08_121"
    INDEX 01 02:39:56
  TRACK 122 AUDIO
    TITLE "LR_black_phrase_S08_122"
    INDEX 01 02:40:55
  TRACK 123 AUDIO
    TITLE "LR_black_phrase_S08_123"
    INDEX 01 02:41:65
  TRACK 124 AUDIO
    TITLE "LR_black_phrase_S08_124"
    INDEX 01 02:42:29
  TRACK 125 AUDIO
    TITLE "LR_black_phrase_S08_125"
    INDEX 01 02:44:34
  TRACK 126 AUDIO
    TITLE "LR_black_phrase_S08_126"
    INDEX 01 02:45:33
  TRACK 127 AUDIO
    TITLE "LR_black_phrase_S08_127"
    INDEX 01 02:48:02
  TRACK 128 AUDIO
    TITLE "LR_black_phrase_S08_128"
    INDEX 01 02:48:41
  TRACK 129 AUDIO
    TITLE "LR_black_phrase_S08_129"
    INDEX 01 02:50:71
  TRACK 130 AUDIO
    TITLE "LR_black_phrase_S08_130"
    INDEX 01 02:51:24
  TRACK 131 AUDIO
    TITLE "LR_black_phrase_S08_131"
    INDEX 01 02:53:52
  TRACK 132 AUDIO
    TITLE "LR_black_phrase_S08_132"
    INDEX 01 02:54:57
  TRACK 133 AUDIO
    TITLE "LR_black_phrase_S08_133"
    INDEX 01 02:55:65
  TRACK 134 AUDIO
    TITLE "LR_black_phrase_S08_134"
    INDEX 01 02:56:21
  TRACK 135 AUDIO
    TITLE "LR_black_phrase_S08_135"
    INDEX 01 02:58:57
  TRACK 136 AUDIO
    TITLE "LR_black_phrase_S08_136"
    INDEX 01 02:59:55
  TRACK 137 AUDIO
    TITLE "LR_black_phrase_S08_137"
    INDEX 01 03:02:04
  TRACK 138 AUDIO
    TITLE "LR_black_phrase_S08_138"
    INDEX 01 03:02:45
  TRACK 139 AUDIO
    TITLE "LR_black_phrase_S08_139"
    INDEX 01 03:04:66
  TRACK 140 AUDIO
    TITLE "LR_black_phrase_S08_140"
    INDEX 01 03:05:20
  TRACK 141 AUDIO
    TITLE "LR_black_phrase_S08_141"
    INDEX 01 03:07:40
  TRACK 142 AUDIO
    TITLE "LR_black_phrase_S08_142"
    INDEX 01 03:08:40
  TRACK 143 AUDIO
    TITLE "LR_black_phrase_S08_143"
    INDEX 01 03:09:49
  TRACK 144 AUDIO
    TITLE "LR_black_phrase_S08_144"
    INDEX 01 03:10:13
  TRACK 145 AUDIO
    TITLE "LR_black_phrase_S08_145"
    INDEX 01 03:12:36
  TRACK 146 AUDIO
    TITLE "LR_black_phrase_S08_146"
    INDEX 01 03:13:35
  TRACK 147 AUDIO
    TITLE "LR_black_phrase_S08_147"
    INDEX 01 03:15:36
  TRACK 148 AUDIO
    TITLE "LR_black_phrase_S08_148"
    INDEX 01 03:15:71
  TRACK 149 AUDIO
    TITLE "LR_black_phrase_S08_149"
    INDEX 01 03:18:15
  TRACK 150 AUDIO
    TITLE "LR_black_phrase_S08_150"
    INDEX 01 03:18:36
  TRACK 151 AUDIO
    TITLE "LR_black_phrase_S08_151"
    INDEX 01 03:20:55
  TRACK 152 AUDIO
    TITLE "LR_black_phrase_S08_152"
    INDEX 01 03:21:52
  TRACK 153 AUDIO
    TITLE "LR_black_phrase_S08_153"
    INDEX 01 03:22:69
  TRACK 154 AUDIO
    TITLE "LR_black_phrase_S08_154"
    INDEX 01 03:23:28
  TRACK 155 AUDIO
    TITLE "LR_black_phrase_S08_155"
    INDEX 01 03:26:03
  TRACK 156 AUDIO
    TITLE "LR_black_phrase_S08_156"
    INDEX 01 03:27:08
  TRACK 157 AUDIO
    TITLE "LR_black_phrase_S08_157"
    INDEX 01 03:30:04
  TRACK 158 AUDIO
    TITLE "LR_black_phrase_S08_158"
    INDEX 01 03:30:40
  TRACK 159 AUDIO
    TITLE "LR_black_phrase_S08_159"
    INDEX 01 03:33:05
  TRACK 160 AUDIO
    TITLE "LR_black_phrase_S08_160"
    INDEX 01 03:33:24
  TRACK 161 AUDIO
    TITLE "LR_black_phrase_S08_161"
    INDEX 01 03:35:64
  TRACK 162 AUDIO
    TITLE "LR_black_phrase_S08_162"
    INDEX 01 03:36:64
  TRACK 163 AUDIO
    TITLE "LR_black_phrase_S08_163"
    INDEX 01 03:37:69
  TRACK 164 AUDIO
    TITLE "LR_black_phrase_S08_164"
    INDEX 01 03:38:33
  TRACK 165 AUDIO
    TITLE "LR_black_phrase_S08_165"
    INDEX 01 03:41:75
  TRACK 166 AUDIO
    TITLE "LR_black_phrase_S08_166"
    INDEX 01 03:42:74
  TRACK 167 AUDIO
    TITLE "LR_black_phrase_S08_167"
    INDEX 01 03:44:67
  TRACK 168 AUDIO
    TITLE "LR_black_phrase_S08_168"
    INDEX 01 03:45:31
  TRACK 169 AUDIO
    TITLE "LR_black_phrase_S08_169"
    INDEX 01 03:47:26
  TRACK 170 AUDIO
    TITLE "LR_black_phrase_S08_170"
    INDEX 01 03:47:56
  TRACK 171 AUDIO
    TITLE "LR_black_phrase_S08_171"
    INDEX 01 03:49:49
  TRACK 172 AUDIO
    TITLE "LR_black_phrase_S08_172"
    INDEX 01 03:50:52
  TRACK 173 AUDIO
    TITLE "LR_black_phrase_S08_173"
    INDEX 01 03:51:73
  TRACK 174 AUDIO
    TITLE "LR_black_phrase_S08_174"
    INDEX 01 03:52:37
  TRACK 175 AUDIO
    TITLE "LR_black_phrase_S08_175"
    INDEX 01 03:55:06
  TRACK 176 AUDIO
    TITLE "LR_black_phrase_S08_176"
    INDEX 01 03:56:04
  TRACK 177 AUDIO
    TITLE "LR_black_phrase_S08_177"
    INDEX 01 03:57:62
  TRACK 178 AUDIO
    TITLE "LR_black_phrase_S08_178"
    INDEX 01 03:58:28
  TRACK 179 AUDIO
    TITLE "LR_black_phrase_S08_179"
    INDEX 01 04:00:15
  TRACK 180 AUDIO
    TITLE "LR_black_phrase_S08_180"
    INDEX 01 04:00:45
  TRACK 181 AUDIO
    TITLE "LR_black_phrase_S08_181"
    INDEX 01 04:02:34
  TRACK 182 AUDIO
    TITLE "LR_black_phrase_S08_182"
    INDEX 01 04:03:33
  TRACK 183 AUDIO
    TITLE "LR_black_phrase_S08_183"
    INDEX 01 04:04:46
  TRACK 184 AUDIO
    TITLE "LR_black_phrase_S08_184"
    INDEX 01 04:05:03
  TRACK 185 AUDIO
    TITLE "LR_black_phrase_S08_185"
    INDEX 01 04:07:29
  TRACK 186 AUDIO
    TITLE "LR_black_phrase_S08_186"
    INDEX 01 04:08:30
  TRACK 187 AUDIO
    TITLE "LR_black_phrase_S08_187"
    INDEX 01 04:10:02
  TRACK 188 AUDIO
    TITLE "LR_black_phrase_S08_188"
    INDEX 01 04:10:37
  TRACK 189 AUDIO
    TITLE "LR_black_phrase_S08_189"
    INDEX 01 04:12:58
  TRACK 190 AUDIO
    TITLE "LR_black_phrase_S08_190"
    INDEX 01 04:13:02
  TRACK 191 AUDIO
    TITLE "LR_black_phrase_S08_191"
    INDEX 01 04:15:21
  TRACK 192 AUDIO
    TITLE "LR_black_phrase_S08_192"
    INDEX 01 04:16:18
  TRACK 193 AUDIO
    TITLE "LR_black_phrase_S08_193"
    INDEX 01 04:17:49
  TRACK 194 AUDIO
    TITLE "LR_black_phrase_S08_194"
    INDEX 01 04:18:09
  TRACK 195 AUDIO
    TITLE "LR_black_phrase_S08_195"
    INDEX 01 04:21:39
  TRACK 196 AUDIO
    TITLE "LR_black_phrase_S08_196"
    INDEX 01 04:22:36
  TRACK 197 AUDIO
    TITLE "LR_black_phrase_S08_197"
    INDEX 01 04:24:14
  TRACK 198 AUDIO
    TITLE "LR_black_phrase_S08_198"
    INDEX 01 04:24:55
  TRACK 199 AUDIO
    TITLE "LR_black_phrase_S08_199"
    INDEX 01 04:26:62
  TRACK 200 AUDIO
    TITLE "LR_black_phrase_S08_200"
    INDEX 01 04:27:20
  TRACK 201 AUDIO
    TITLE "LR_black_phrase_S08_201"
    INDEX 01 04:29:27
